<svg width="100" height="100" viewBox="0 0 100 100" fill="none" xmlns="http://www.w3.org/2000/svg">
<circle id="Ellipse 1" cx="50" cy="50" r="50" fill="url(#paint0_linear_0_1)"/>
<path id="JL" d="M33.4233 27.1818H35.4155L32.7947 42.9808C32.5604 44.4013 32.1236 45.5803 31.4844 46.5178C30.8523 47.4482 30.0639 48.1442 29.1193 48.6058C28.1747 49.0675 27.12 49.2983 25.9553 49.2983C24.8047 49.2983 23.8139 49.0888 22.983 48.6697C22.152 48.2436 21.5376 47.6506 21.1399 46.8906C20.7493 46.1307 20.6357 45.2429 20.799 44.2273H22.6953C22.603 44.8878 22.6811 45.4666 22.9297 45.9638C23.1854 46.4538 23.5795 46.8338 24.1122 47.1037C24.652 47.3736 25.2876 47.5085 26.0192 47.5085C26.8075 47.5085 27.532 47.3416 28.1925 47.0078C28.853 46.674 29.4141 46.1662 29.8757 45.4844C30.3374 44.7955 30.657 43.9219 30.8345 42.8636L33.4233 27.1818ZM37.5888 49L41.2109 27.1818H43.2031L39.8793 47.2102H50.277L49.9787 49H37.5888Z" fill="#4D5A55"/>
<defs>
<linearGradient id="paint0_linear_0_1" x1="2.8378e-07" y1="2.83333" x2="91" y2="97.6667" gradientUnits="userSpaceOnUse">
<stop stop-color="#73E3A0"/>
<stop offset="1" stop-color="#4CC2D2"/>
</linearGradient>
</defs>
</svg>
