<svg width="201" height="74" viewBox="0 0 201 74" fill="none" xmlns="http://www.w3.org/2000/svg">
<path d="M80.3125 0.832031C82.5911 0.832031 84.6419 1.22266 86.4648 2.00391C88.3529 2.72005 90.0781 3.53385 91.6406 4.44531C93.2682 5.35677 94.7982 6.20312 96.2305 6.98438C97.6628 7.70052 99.1276 8.05859 100.625 8.05859C101.797 7.99349 103.132 7.83073 104.629 7.57031C105.931 7.3099 107.428 6.91927 109.121 6.39844C110.879 5.8125 112.832 4.96615 114.98 3.85938C112.832 5.94271 111.074 7.70052 109.707 9.13281C108.405 10.5 107.396 11.6393 106.68 12.5508C105.833 13.5924 105.215 14.4062 104.824 14.9922C104.434 15.7083 103.848 16.7826 103.066 18.2148C102.35 19.5169 101.374 21.2747 100.137 23.4883C98.8997 25.6367 97.3372 28.4688 95.4492 31.9844C95.4492 27.4922 94.9935 24.0091 94.082 21.5352C93.2357 19.0612 92.2917 17.1732 91.25 15.8711C90.013 14.3737 88.6133 13.4297 87.0508 13.0391C85.6185 12.8438 84.1862 13.1042 82.7539 13.8203C81.3216 14.4714 79.8893 15.4479 78.457 16.75C77.0898 18.0521 75.7552 19.6146 74.4531 21.4375C73.2161 23.1953 72.0768 25.0508 71.0352 27.0039C70.0586 28.957 69.2448 30.9427 68.5938 32.9609C67.9427 34.9141 67.5195 36.737 67.3242 38.4297C67.1289 39.9271 67.0964 41.6849 67.2266 43.7031C67.3568 45.6562 67.6497 47.6745 68.1055 49.7578C68.5612 51.776 69.1471 53.7617 69.8633 55.7148C70.5794 57.668 71.4583 59.4258 72.5 60.9883C73.6068 62.4857 74.8438 63.7227 76.2109 64.6992C77.5781 65.6107 79.1406 66.0339 80.8984 65.9688C82.8516 65.8385 84.7721 65.2526 86.6602 64.2109C88.2878 63.3646 89.9479 62.0625 91.6406 60.3047C93.3333 58.4818 94.7982 55.9102 96.0352 52.5898L110.488 55.2266C106.322 60.3047 102.253 64.1133 98.2812 66.6523C94.375 69.1914 90.8594 70.9818 87.7344 72.0234C84.0885 73.1953 80.638 73.7487 77.3828 73.6836C73.2812 73.2279 69.4401 71.9909 65.8594 69.9727C62.2786 67.9544 59.1862 65.513 56.582 62.6484C54.043 59.7188 52.0573 56.5286 50.625 53.0781C49.1927 49.6276 48.5742 46.2422 48.7695 42.9219C48.8997 40.7083 49.3555 38.1367 50.1367 35.207C50.918 32.2122 51.9596 29.1523 53.2617 26.0273C54.6289 22.9023 56.2565 19.8424 58.1445 16.8477C60.0326 13.8529 62.1159 11.1836 64.3945 8.83984C66.6732 6.43099 69.1471 4.51042 71.8164 3.07812C74.5508 1.58073 77.3828 0.832031 80.3125 0.832031ZM139.59 0.832031C141.868 0.832031 143.919 1.22266 145.742 2.00391C147.63 2.72005 149.355 3.53385 150.918 4.44531C152.546 5.35677 154.076 6.20312 155.508 6.98438C156.94 7.70052 158.405 8.05859 159.902 8.05859C161.074 7.99349 162.409 7.83073 163.906 7.57031C165.208 7.3099 166.706 6.91927 168.398 6.39844C170.156 5.8125 172.109 4.96615 174.258 3.85938C172.109 5.94271 170.352 7.70052 168.984 9.13281C167.682 10.5 166.673 11.6393 165.957 12.5508C165.111 13.5924 164.492 14.4062 164.102 14.9922C163.711 15.7083 163.125 16.7826 162.344 18.2148C161.628 19.5169 160.651 21.2747 159.414 23.4883C158.177 25.6367 156.615 28.4688 154.727 31.9844C154.727 27.4922 154.271 24.0091 153.359 21.5352C152.513 19.0612 151.569 17.1732 150.527 15.8711C149.29 14.3737 147.891 13.4297 146.328 13.0391C144.896 12.8438 143.464 13.1042 142.031 13.8203C140.599 14.4714 139.167 15.4479 137.734 16.75C136.367 18.0521 135.033 19.6146 133.73 21.4375C132.493 23.1953 131.354 25.0508 130.312 27.0039C129.336 28.957 128.522 30.9427 127.871 32.9609C127.22 34.9141 126.797 36.737 126.602 38.4297C126.406 39.9271 126.374 41.6849 126.504 43.7031C126.634 45.6562 126.927 47.6745 127.383 49.7578C127.839 51.776 128.424 53.7617 129.141 55.7148C129.857 57.668 130.736 59.4258 131.777 60.9883C132.884 62.4857 134.121 63.7227 135.488 64.6992C136.855 65.6107 138.418 66.0339 140.176 65.9688C142.129 65.8385 144.049 65.2526 145.938 64.2109C147.565 63.3646 149.225 62.0625 150.918 60.3047C152.611 58.4818 154.076 55.9102 155.312 52.5898L169.766 55.2266C165.599 60.3047 161.53 64.1133 157.559 66.6523C153.652 69.1914 150.137 70.9818 147.012 72.0234C143.366 73.1953 139.915 73.7487 136.66 73.6836C132.559 73.2279 128.717 71.9909 125.137 69.9727C121.556 67.9544 118.464 65.513 115.859 62.6484C113.32 59.7188 111.335 56.5286 109.902 53.0781C108.47 49.6276 107.852 46.2422 108.047 42.9219C108.177 40.7083 108.633 38.1367 109.414 35.207C110.195 32.2122 111.237 29.1523 112.539 26.0273C113.906 22.9023 115.534 19.8424 117.422 16.8477C119.31 13.8529 121.393 11.1836 123.672 8.83984C125.951 6.43099 128.424 4.51042 131.094 3.07812C133.828 1.58073 136.66 0.832031 139.59 0.832031Z" fill="black"/>
<path d="M200.697 40.1205C201.09 39.7327 201.095 39.0996 200.707 38.7063L194.388 32.2977C194 31.9044 193.367 31.9 192.974 32.2877C192.581 32.6755 192.576 33.3086 192.964 33.7019L198.581 39.3985L192.884 45.0153C192.491 45.4031 192.487 46.0362 192.874 46.4295C193.262 46.8228 193.895 46.8272 194.289 46.4395L200.697 40.1205ZM-0.00704208 39L199.988 40.4084L200.002 38.4084L0.00704208 37L-0.00704208 39Z" fill="black"/>
<path d="M10.7072 38.7071C11.0977 38.3166 11.0977 37.6834 10.7072 37.2929L4.34325 30.9289C3.95272 30.5384 3.31956 30.5384 2.92903 30.9289C2.53851 31.3195 2.53851 31.9526 2.92903 32.3431L8.58589 38L2.92903 43.6569C2.53851 44.0474 2.53851 44.6805 2.92903 45.0711C3.31956 45.4616 3.95272 45.4616 4.34325 45.0711L10.7072 38.7071ZM10 39H10.0001V37H10V39Z" fill="black"/>
<path d="M30.7072 38.7071C31.0977 38.3166 31.0977 37.6834 30.7072 37.2929L24.3432 30.9289C23.9527 30.5384 23.3196 30.5384 22.929 30.9289C22.5385 31.3195 22.5385 31.9526 22.929 32.3431L28.5859 38L22.929 43.6569C22.5385 44.0474 22.5385 44.6805 22.929 45.0711C23.3196 45.4616 23.9527 45.4616 24.3432 45.0711L30.7072 38.7071ZM30 39H30.0001V37H30V39Z" fill="black"/>
<path d="M20.7072 38.7071C21.0977 38.3166 21.0977 37.6834 20.7072 37.2929L14.3432 30.9289C13.9527 30.5384 13.3196 30.5384 12.929 30.9289C12.5385 31.3195 12.5385 31.9526 12.929 32.3431L18.5859 38L12.929 43.6569C12.5385 44.0474 12.5385 44.6805 12.929 45.0711C13.3196 45.4616 13.9527 45.4616 14.3432 45.0711L20.7072 38.7071ZM20 39H20.0001V37H20V39Z" fill="black"/>
</svg>
